<?xml version="1.0" encoding="UTF-8" standalone="no"?><svg xmlns="http://www.w3.org/2000/svg" xmlns:xlink="http://www.w3.org/1999/xlink" clip-rule="evenodd" stroke-miterlimit="10" viewBox="0 0 1024 768"><desc>SVG generated by Keynote</desc><defs></defs><g transform="matrix(1.00, 0.00, -0.00, -1.00, 0.0, 768.0)"><path d="M 0.0 768.0 L 1024.0 768.0 L 1024.0 0.0 L 0.0 0.0 Z M 0.0 768.0 " fill="#000000"></path><text xml:space="preserve" font-family="AndaleMono,Andale Mono" font-size="124.0" fill="#FEFFFE" transform="matrix(1.00, 0.00, -0.00, -1.00, 28.3, 561.0)">S</text><text xml:space="preserve" font-family="AndaleMono,Andale Mono" font-size="124.0" fill="#FEFFFE" transform="matrix(1.00, 0.00, -0.00, -1.00, 102.7, 561.0)">T</text><text xml:space="preserve" font-family="AndaleMono,Andale Mono" font-size="124.0" fill="#FEFFFE" transform="matrix(1.00, 0.00, -0.00, -1.00, 177.2, 561.0)">O</text><text xml:space="preserve" font-family="AndaleMono,Andale Mono" font-size="124.0" fill="#FEFFFE" transform="matrix(1.00, 0.00, -0.00, -1.00, 251.6, 561.0)">P</text><text xml:space="preserve" font-family="AndaleMono,Andale Mono" font-size="124.0" fill="#FEFFFE" transform="matrix(1.00, 0.00, -0.00, -1.00, 326.0, 561.0)"> </text><text xml:space="preserve" font-family="AndaleMono,Andale Mono" font-size="124.0" fill="#FEFFFE" transform="matrix(1.00, 0.00, -0.00, -1.00, 400.4, 561.0)">T</text><text xml:space="preserve" font-family="AndaleMono,Andale Mono" font-size="124.0" fill="#FEFFFE" transform="matrix(1.00, 0.00, -0.00, -1.00, 474.9, 561.0)">R</text><text xml:space="preserve" font-family="AndaleMono,Andale Mono" font-size="124.0" fill="#FEFFFE" transform="matrix(1.00, 0.00, -0.00, -1.00, 549.3, 561.0)">E</text><text xml:space="preserve" font-family="AndaleMono,Andale Mono" font-size="124.0" fill="#FEFFFE" transform="matrix(1.00, 0.00, -0.00, -1.00, 623.7, 561.0)">A</text><text xml:space="preserve" font-family="AndaleMono,Andale Mono" font-size="124.0" fill="#FEFFFE" transform="matrix(1.00, 0.00, -0.00, -1.00, 698.1, 561.0)">T</text><text xml:space="preserve" font-family="AndaleMono,Andale Mono" font-size="124.0" fill="#FEFFFE" transform="matrix(1.00, 0.00, -0.00, -1.00, 772.6, 561.0)">I</text><text xml:space="preserve" font-family="AndaleMono,Andale Mono" font-size="124.0" fill="#FEFFFE" transform="matrix(1.00, 0.00, -0.00, -1.00, 847.0, 561.0)">N</text><text xml:space="preserve" font-family="AndaleMono,Andale Mono" font-size="124.0" fill="#FEFFFE" transform="matrix(1.00, 0.00, -0.00, -1.00, 921.4, 561.0)">G</text><text xml:space="preserve" font-family="AndaleMono,Andale Mono" font-size="124.0" fill="#FEFFFE" transform="matrix(1.00, 0.00, -0.00, -1.00, 995.8, 561.0)"> </text><text xml:space="preserve" font-family="AndaleMono,Andale Mono" font-size="124.0" fill="#FEFFFE" transform="matrix(1.00, 0.00, -0.00, -1.00, 28.3, 422.0)">O</text><text xml:space="preserve" font-family="AndaleMono,Andale Mono" font-size="124.0" fill="#FEFFFE" transform="matrix(1.00, 0.00, -0.00, -1.00, 102.7, 422.0)">F</text><text xml:space="preserve" font-family="AndaleMono,Andale Mono" font-size="124.0" fill="#FEFFFE" transform="matrix(1.00, 0.00, -0.00, -1.00, 177.2, 422.0)">F</text><text xml:space="preserve" font-family="AndaleMono,Andale Mono" font-size="124.0" fill="#FEFFFE" transform="matrix(1.00, 0.00, -0.00, -1.00, 251.6, 422.0)">L</text><text xml:space="preserve" font-family="AndaleMono,Andale Mono" font-size="124.0" fill="#FEFFFE" transform="matrix(1.00, 0.00, -0.00, -1.00, 326.0, 422.0)">I</text><text xml:space="preserve" font-family="AndaleMono,Andale Mono" font-size="124.0" fill="#FEFFFE" transform="matrix(1.00, 0.00, -0.00, -1.00, 400.4, 422.0)">N</text><text xml:space="preserve" font-family="AndaleMono,Andale Mono" font-size="124.0" fill="#FEFFFE" transform="matrix(1.00, 0.00, -0.00, -1.00, 474.9, 422.0)">E</text><text xml:space="preserve" font-family="AndaleMono,Andale Mono" font-size="124.0" fill="#FEFFFE" transform="matrix(1.00, 0.00, -0.00, -1.00, 549.3, 422.0)"> </text><text xml:space="preserve" font-family="AndaleMono,Andale Mono" font-size="124.0" fill="#FEFFFE" transform="matrix(1.00, 0.00, -0.00, -1.00, 623.7, 422.0)">A</text><text xml:space="preserve" font-family="AndaleMono,Andale Mono" font-size="124.0" fill="#FEFFFE" transform="matrix(1.00, 0.00, -0.00, -1.00, 698.1, 422.0)">S</text><text xml:space="preserve" font-family="AndaleMono,Andale Mono" font-size="124.0" fill="#FEFFFE" transform="matrix(1.00, 0.00, -0.00, -1.00, 772.6, 422.0)"> </text><text xml:space="preserve" font-family="AndaleMono,Andale Mono" font-size="124.0" fill="#FEFFFE" transform="matrix(1.00, 0.00, -0.00, -1.00, 847.0, 422.0)">A</text><text xml:space="preserve" font-family="AndaleMono,Andale Mono" font-size="124.0" fill="#FEFFFE" transform="matrix(1.00, 0.00, -0.00, -1.00, 921.4, 422.0)">N</text><text xml:space="preserve" font-family="AndaleMono,Andale Mono" font-size="124.0" fill="#FEFFFE" transform="matrix(1.00, 0.00, -0.00, -1.00, 995.8, 422.0)"> </text><text xml:space="preserve" font-family="AndaleMono,Andale Mono" font-size="124.0" fill="#FEFFFE" transform="matrix(1.00, 0.00, -0.00, -1.00, 326.0, 283.0)">E</text><text xml:space="preserve" font-family="AndaleMono,Andale Mono" font-size="124.0" fill="#FEFFFE" transform="matrix(1.00, 0.00, -0.00, -1.00, 400.4, 283.0)">R</text><text xml:space="preserve" font-family="AndaleMono,Andale Mono" font-size="124.0" fill="#FEFFFE" transform="matrix(1.00, 0.00, -0.00, -1.00, 474.8, 283.0)">R</text><text xml:space="preserve" font-family="AndaleMono,Andale Mono" font-size="124.0" fill="#FEFFFE" transform="matrix(1.00, 0.00, -0.00, -1.00, 549.2, 283.0)">O</text><text xml:space="preserve" font-family="AndaleMono,Andale Mono" font-size="124.0" fill="#FEFFFE" transform="matrix(1.00, 0.00, -0.00, -1.00, 623.7, 283.0)">R</text><text xml:space="preserve" font-family="AndaleMono,Andale Mono" font-size="124.0" fill="#FEFFFE" transform="matrix(1.00, 0.00, -0.00, -1.00, 698.1, 283.0)"> </text><text xml:space="preserve" font-family="AndaleMono,Andale Mono" font-size="124.0" fill="#FEFFFE" transform="matrix(1.00, 0.00, -0.00, -1.00, 139.9, 144.0)">C</text><text xml:space="preserve" font-family="AndaleMono,Andale Mono" font-size="124.0" fill="#FEFFFE" transform="matrix(1.00, 0.00, -0.00, -1.00, 214.4, 144.0)">O</text><text xml:space="preserve" font-family="AndaleMono,Andale Mono" font-size="124.0" fill="#FEFFFE" transform="matrix(1.00, 0.00, -0.00, -1.00, 288.8, 144.0)">N</text><text xml:space="preserve" font-family="AndaleMono,Andale Mono" font-size="124.0" fill="#FEFFFE" transform="matrix(1.00, 0.00, -0.00, -1.00, 363.2, 144.0)">D</text><text xml:space="preserve" font-family="AndaleMono,Andale Mono" font-size="124.0" fill="#FEFFFE" transform="matrix(1.00, 0.00, -0.00, -1.00, 437.6, 144.0)">I</text><text xml:space="preserve" font-family="AndaleMono,Andale Mono" font-size="124.0" fill="#FEFFFE" transform="matrix(1.00, 0.00, -0.00, -1.00, 512.1, 144.0)">T</text><text xml:space="preserve" font-family="AndaleMono,Andale Mono" font-size="124.0" fill="#FEFFFE" transform="matrix(1.00, 0.00, -0.00, -1.00, 586.5, 144.0)">I</text><text xml:space="preserve" font-family="AndaleMono,Andale Mono" font-size="124.0" fill="#FEFFFE" transform="matrix(1.00, 0.00, -0.00, -1.00, 660.9, 144.0)">O</text><text xml:space="preserve" font-family="AndaleMono,Andale Mono" font-size="124.0" fill="#FEFFFE" transform="matrix(1.00, 0.00, -0.00, -1.00, 735.3, 144.0)">N</text><text xml:space="preserve" font-family="AndaleMono,Andale Mono" font-size="124.0" fill="#FEFFFE" transform="matrix(1.00, 0.00, -0.00, -1.00, 809.8, 144.0)">!</text></g></svg>