<?xml version="1.0" encoding="UTF-8" standalone="no"?><svg xmlns="http://www.w3.org/2000/svg" xmlns:xlink="http://www.w3.org/1999/xlink" clip-rule="evenodd" stroke-miterlimit="10" viewBox="0 0 1024 768"><desc>SVG generated by Keynote</desc><defs></defs><g transform="matrix(1.00, 0.00, -0.00, -1.00, 0.0, 768.0)"><g><clipPath id="clip0x600000cad5c0"><path d="M 0.0 768.0 L 1024.0 768.0 L 1024.0 0.0 L 0.0 0.0 Z M 0.0 768.0 "></path></clipPath><g clip-path="url(#clip0x600000cad5c0)"><image xlink:href="574DCE55A4CF432400CBDDDE1DFDFC9B.jpeg" width="2048.00" height="1536.00" transform="matrix(0.50, 0.00, -0.00, -0.50, 0.0, 768.0)"></image></g></g><text xml:space="preserve" font-family="GillSans-Light,Gill Sans" font-size="49.0" fill="#525252" transform="matrix(1.00, 0.00, -0.00, -1.00, 256.5, 272.2)">T</text><text xml:space="preserve" font-family="GillSans-Light,Gill Sans" font-size="49.0" fill="#525252" transform="matrix(1.00, 0.00, -0.00, -1.00, 279.7, 272.2)">A</text><text xml:space="preserve" font-family="GillSans-Light,Gill Sans" font-size="49.0" fill="#525252" transform="matrix(1.00, 0.00, -0.00, -1.00, 312.4, 272.2)">K</text><text xml:space="preserve" font-family="GillSans-Light,Gill Sans" font-size="49.0" fill="#525252" transform="matrix(1.00, 0.00, -0.00, -1.00, 338.4, 272.2)">I</text><text xml:space="preserve" font-family="GillSans-Light,Gill Sans" font-size="49.0" fill="#525252" transform="matrix(1.00, 0.00, -0.00, -1.00, 348.6, 272.2)">N</text><text xml:space="preserve" font-family="GillSans-Light,Gill Sans" font-size="49.0" fill="#525252" transform="matrix(1.00, 0.00, -0.00, -1.00, 386.4, 272.2)">G</text><text xml:space="preserve" font-family="GillSans-Light,Gill Sans" font-size="49.0" fill="#525252" transform="matrix(1.00, 0.00, -0.00, -1.00, 421.6, 272.2)"> </text><text xml:space="preserve" font-family="GillSans-Light,Gill Sans" font-size="49.0" fill="#525252" transform="matrix(1.00, 0.00, -0.00, -1.00, 435.2, 272.2)">E</text><text xml:space="preserve" font-family="GillSans-Light,Gill Sans" font-size="49.0" fill="#525252" transform="matrix(1.00, 0.00, -0.00, -1.00, 459.3, 272.2)">M</text><text xml:space="preserve" font-family="GillSans-Light,Gill Sans" font-size="49.0" fill="#525252" transform="matrix(1.00, 0.00, -0.00, -1.00, 497.5, 272.2)">B</text><text xml:space="preserve" font-family="GillSans-Light,Gill Sans" font-size="49.0" fill="#525252" transform="matrix(1.00, 0.00, -0.00, -1.00, 523.5, 272.2)">E</text><text xml:space="preserve" font-family="GillSans-Light,Gill Sans" font-size="49.0" fill="#525252" transform="matrix(1.00, 0.00, -0.00, -1.00, 547.5, 272.2)">R</text><text xml:space="preserve" font-family="GillSans-Light,Gill Sans" font-size="49.0" fill="#525252" transform="matrix(1.00, 0.00, -0.00, -1.00, 575.6, 272.2)"> </text><text xml:space="preserve" font-family="GillSans-Light,Gill Sans" font-size="49.0" fill="#525252" transform="matrix(1.00, 0.00, -0.00, -1.00, 589.2, 272.2)">O</text><text xml:space="preserve" font-family="GillSans-Light,Gill Sans" font-size="49.0" fill="#525252" transform="matrix(1.00, 0.00, -0.00, -1.00, 629.6, 272.2)">F</text><text xml:space="preserve" font-family="GillSans-Light,Gill Sans" font-size="49.0" fill="#525252" transform="matrix(1.00, 0.00, -0.00, -1.00, 651.0, 272.2)">F</text><text xml:space="preserve" font-family="GillSans-Light,Gill Sans" font-size="49.0" fill="#525252" transform="matrix(1.00, 0.00, -0.00, -1.00, 672.5, 272.2)">L</text><text xml:space="preserve" font-family="GillSans-Light,Gill Sans" font-size="49.0" fill="#525252" transform="matrix(1.00, 0.00, -0.00, -1.00, 695.5, 272.2)">I</text><text xml:space="preserve" font-family="GillSans-Light,Gill Sans" font-size="49.0" fill="#525252" transform="matrix(1.00, 0.00, -0.00, -1.00, 705.7, 272.2)">N</text><text xml:space="preserve" font-family="GillSans-Light,Gill Sans" font-size="49.0" fill="#525252" transform="matrix(1.00, 0.00, -0.00, -1.00, 743.5, 272.2)">E</text><text xml:space="preserve" font-family="GillSans-Light,Gill Sans" font-size="27.0" fill="#525252" transform="matrix(1.00, 0.00, -0.00, -1.00, 418.7, 216.5)">J</text><text xml:space="preserve" font-family="GillSans-Light,Gill Sans" font-size="27.0" fill="#525252" transform="matrix(1.00, 0.00, -0.00, -1.00, 424.3, 216.5)">o</text><text xml:space="preserve" font-family="GillSans-Light,Gill Sans" font-size="27.0" fill="#525252" transform="matrix(1.00, 0.00, -0.00, -1.00, 438.9, 216.5)">h</text><text xml:space="preserve" font-family="GillSans-Light,Gill Sans" font-size="27.0" fill="#525252" transform="matrix(1.00, 0.00, -0.00, -1.00, 452.2, 216.5)">n</text><text xml:space="preserve" font-family="GillSans-Light,Gill Sans" font-size="27.0" fill="#525252" transform="matrix(1.00, 0.00, -0.00, -1.00, 465.4, 216.5)"> </text><text xml:space="preserve" font-family="GillSans-Light,Gill Sans" font-size="27.0" fill="#525252" transform="matrix(1.00, 0.00, -0.00, -1.00, 472.9, 216.5)">K</text><text xml:space="preserve" font-family="GillSans-Light,Gill Sans" font-size="27.0" fill="#525252" transform="matrix(1.00, 0.00, -0.00, -1.00, 487.2, 216.5)">l</text><text xml:space="preserve" font-family="GillSans-Light,Gill Sans" font-size="27.0" fill="#525252" transform="matrix(1.00, 0.00, -0.00, -1.00, 492.3, 216.5)">e</text><text xml:space="preserve" font-family="GillSans-Light,Gill Sans" font-size="27.0" fill="#525252" transform="matrix(1.00, 0.00, -0.00, -1.00, 505.2, 216.5)">i</text><text xml:space="preserve" font-family="GillSans-Light,Gill Sans" font-size="27.0" fill="#525252" transform="matrix(1.00, 0.00, -0.00, -1.00, 510.3, 216.5)">n</text><text xml:space="preserve" font-family="GillSans-Light,Gill Sans" font-size="27.0" fill="#525252" transform="matrix(1.00, 0.00, -0.00, -1.00, 523.5, 216.5)">s</text><text xml:space="preserve" font-family="GillSans-Light,Gill Sans" font-size="27.0" fill="#525252" transform="matrix(1.00, 0.00, -0.00, -1.00, 533.1, 216.5)">c</text><text xml:space="preserve" font-family="GillSans-Light,Gill Sans" font-size="27.0" fill="#525252" transform="matrix(1.00, 0.00, -0.00, -1.00, 544.3, 216.5)">h</text><text xml:space="preserve" font-family="GillSans-Light,Gill Sans" font-size="27.0" fill="#525252" transform="matrix(1.00, 0.00, -0.00, -1.00, 557.5, 216.5)">m</text><text xml:space="preserve" font-family="GillSans-Light,Gill Sans" font-size="27.0" fill="#525252" transform="matrix(1.00, 0.00, -0.00, -1.00, 578.3, 216.5)">i</text><text xml:space="preserve" font-family="GillSans-Light,Gill Sans" font-size="27.0" fill="#525252" transform="matrix(1.00, 0.00, -0.00, -1.00, 583.4, 216.5)">d</text><text xml:space="preserve" font-family="GillSans-Light,Gill Sans" font-size="27.0" fill="#525252" transform="matrix(1.00, 0.00, -0.00, -1.00, 597.2, 216.5)">t</text><text xml:space="preserve" font-family="GillSans-Light,Gill Sans" font-size="27.0" fill="#525252" transform="matrix(1.00, 0.00, -0.00, -1.00, 367.4, 186.5)">W</text><text xml:space="preserve" font-family="GillSans-Light,Gill Sans" font-size="27.0" fill="#525252" transform="matrix(1.00, 0.00, -0.00, -1.00, 395.2, 186.5)">i</text><text xml:space="preserve" font-family="GillSans-Light,Gill Sans" font-size="27.0" fill="#525252" transform="matrix(1.00, 0.00, -0.00, -1.00, 400.3, 186.5)">c</text><text xml:space="preserve" font-family="GillSans-Light,Gill Sans" font-size="27.0" fill="#525252" transform="matrix(1.00, 0.00, -0.00, -1.00, 411.5, 186.5)">k</text><text xml:space="preserve" font-family="GillSans-Light,Gill Sans" font-size="27.0" fill="#525252" transform="matrix(1.00, 0.00, -0.00, -1.00, 422.8, 186.5)">e</text><text xml:space="preserve" font-family="GillSans-Light,Gill Sans" font-size="27.0" fill="#525252" transform="matrix(1.00, 0.00, -0.00, -1.00, 435.7, 186.5)">d</text><text xml:space="preserve" font-family="GillSans-Light,Gill Sans" font-size="27.0" fill="#525252" transform="matrix(1.00, 0.00, -0.00, -1.00, 449.4, 186.5)"> </text><text xml:space="preserve" font-family="GillSans-Light,Gill Sans" font-size="27.0" fill="#525252" transform="matrix(1.00, 0.00, -0.00, -1.00, 456.9, 186.5)">G</text><text xml:space="preserve" font-family="GillSans-Light,Gill Sans" font-size="27.0" fill="#525252" transform="matrix(1.00, 0.00, -0.00, -1.00, 476.3, 186.5)">o</text><text xml:space="preserve" font-family="GillSans-Light,Gill Sans" font-size="27.0" fill="#525252" transform="matrix(1.00, 0.00, -0.00, -1.00, 491.0, 186.5)">o</text><text xml:space="preserve" font-family="GillSans-Light,Gill Sans" font-size="27.0" fill="#525252" transform="matrix(1.00, 0.00, -0.00, -1.00, 505.6, 186.5)">d</text><text xml:space="preserve" font-family="GillSans-Light,Gill Sans" font-size="27.0" fill="#525252" transform="matrix(1.00, 0.00, -0.00, -1.00, 519.3, 186.5)"> </text><text xml:space="preserve" font-family="GillSans-Light,Gill Sans" font-size="27.0" fill="#525252" transform="matrix(1.00, 0.00, -0.00, -1.00, 526.8, 186.5)">E</text><text xml:space="preserve" font-family="GillSans-Light,Gill Sans" font-size="27.0" fill="#525252" transform="matrix(1.00, 0.00, -0.00, -1.00, 540.0, 186.5)">m</text><text xml:space="preserve" font-family="GillSans-Light,Gill Sans" font-size="27.0" fill="#525252" transform="matrix(1.00, 0.00, -0.00, -1.00, 560.8, 186.5)">b</text><text xml:space="preserve" font-family="GillSans-Light,Gill Sans" font-size="27.0" fill="#525252" transform="matrix(1.00, 0.00, -0.00, -1.00, 574.6, 186.5)">e</text><text xml:space="preserve" font-family="GillSans-Light,Gill Sans" font-size="27.0" fill="#525252" transform="matrix(1.00, 0.00, -0.00, -1.00, 587.5, 186.5)">r</text><text xml:space="preserve" font-family="GillSans-Light,Gill Sans" font-size="27.0" fill="#525252" transform="matrix(1.00, 0.00, -0.00, -1.00, 596.5, 186.5)"> </text><text xml:space="preserve" font-family="GillSans-Light,Gill Sans" font-size="27.0" fill="#525252" transform="matrix(1.00, 0.00, -0.00, -1.00, 604.0, 186.5)">C</text><text xml:space="preserve" font-family="GillSans-Light,Gill Sans" font-size="27.0" fill="#525252" transform="matrix(1.00, 0.00, -0.00, -1.00, 622.2, 186.5)">o</text><text xml:space="preserve" font-family="GillSans-Light,Gill Sans" font-size="27.0" fill="#525252" transform="matrix(1.00, 0.00, -0.00, -1.00, 636.9, 186.5)">n</text><text xml:space="preserve" font-family="GillSans-Light,Gill Sans" font-size="27.0" fill="#525252" transform="matrix(1.00, 0.00, -0.00, -1.00, 650.1, 186.5)">f</text><text xml:space="preserve" font-family="GillSans-Light,Gill Sans" font-size="27.0" fill="#525252" transform="matrix(1.00, 0.00, -0.00, -1.00, 440.2, 156.5)">J</text><text xml:space="preserve" font-family="GillSans-Light,Gill Sans" font-size="27.0" fill="#525252" transform="matrix(1.00, 0.00, -0.00, -1.00, 445.8, 156.5)">u</text><text xml:space="preserve" font-family="GillSans-Light,Gill Sans" font-size="27.0" fill="#525252" transform="matrix(1.00, 0.00, -0.00, -1.00, 459.1, 156.5)">n</text><text xml:space="preserve" font-family="GillSans-Light,Gill Sans" font-size="27.0" fill="#525252" transform="matrix(1.00, 0.00, -0.00, -1.00, 472.3, 156.5)">e</text><text xml:space="preserve" font-family="GillSans-Light,Gill Sans" font-size="27.0" fill="#525252" transform="matrix(1.00, 0.00, -0.00, -1.00, 485.2, 156.5)"> </text><text xml:space="preserve" font-family="GillSans-Light,Gill Sans" font-size="27.0" fill="#525252" transform="matrix(1.00, 0.00, -0.00, -1.00, 492.7, 156.5)">1</text><text xml:space="preserve" font-family="GillSans-Light,Gill Sans" font-size="27.0" fill="#525252" transform="matrix(1.00, 0.00, -0.00, -1.00, 506.2, 156.5)">6</text><text xml:space="preserve" font-family="GillSans-Light,Gill Sans" font-size="27.0" fill="#525252" transform="matrix(1.00, 0.00, -0.00, -1.00, 519.7, 156.5)">,</text><text xml:space="preserve" font-family="GillSans-Light,Gill Sans" font-size="27.0" fill="#525252" transform="matrix(1.00, 0.00, -0.00, -1.00, 522.3, 156.5)"> </text><text xml:space="preserve" font-family="GillSans-Light,Gill Sans" font-size="27.0" fill="#525252" transform="matrix(1.00, 0.00, -0.00, -1.00, 529.8, 156.5)">2</text><text xml:space="preserve" font-family="GillSans-Light,Gill Sans" font-size="27.0" fill="#525252" transform="matrix(1.00, 0.00, -0.00, -1.00, 543.3, 156.5)">0</text><text xml:space="preserve" font-family="GillSans-Light,Gill Sans" font-size="27.0" fill="#525252" transform="matrix(1.00, 0.00, -0.00, -1.00, 556.8, 156.5)">1</text><text xml:space="preserve" font-family="GillSans-Light,Gill Sans" font-size="27.0" fill="#525252" transform="matrix(1.00, 0.00, -0.00, -1.00, 570.3, 156.5)">5</text><image xlink:href="37208F74C49DC8EB02440D834ABFADED.png" width="378.00" height="378.00" transform="matrix(1.00, 0.00, -0.00, -1.00, 357.0, 691.0)"></image></g></svg>