<?xml version="1.0" encoding="UTF-8" standalone="no"?><svg xmlns="http://www.w3.org/2000/svg" xmlns:xlink="http://www.w3.org/1999/xlink" clip-rule="evenodd" stroke-miterlimit="10" viewBox="0 0 1024 768"><desc>SVG generated by Keynote</desc><defs></defs><g transform="matrix(1.00, 0.00, -0.00, -1.00, 0.0, 768.0)"><g><clipPath id="clip0x7fb6a3de5850"><path d="M 0.0 768.0 L 1024.0 768.0 L 1024.0 0.0 L 0.0 0.0 Z M 0.0 768.0 "></path></clipPath><g clip-path="url(#clip0x7fb6a3de5850)"><image xlink:href="../../BE03AB4A-F5E0-4685-80C7-20DCBC62631F/assets/574DCE55A4CF432400CBDDDE1DFDFC9B.jpeg" width="2048.00" height="1536.00" transform="matrix(0.50, 0.00, -0.00, -0.50, 0.0, 768.0)"></image></g></g><image xlink:href="../../5059F9D5-99BE-401C-9DBB-240A1250E31B/assets/EF3F73648BF4BB775448685287F1714E.png" width="659.00" height="352.00" transform="matrix(1.00, 0.00, -0.00, -1.00, 183.0, 577.0)"></image><text xml:space="preserve" font-family="GillSans-Light,Gill Sans" font-size="28.0" fill="#525252" transform="matrix(1.00, 0.00, -0.00, -1.00, 145.0, 189.7)">S</text><text xml:space="preserve" font-family="GillSans-Light,Gill Sans" font-size="28.0" fill="#525252" transform="matrix(1.00, 0.00, -0.00, -1.00, 158.2, 189.7)">o</text><text xml:space="preserve" font-family="GillSans-Light,Gill Sans" font-size="28.0" fill="#525252" transform="matrix(1.00, 0.00, -0.00, -1.00, 173.3, 189.7)">u</text><text xml:space="preserve" font-family="GillSans-Light,Gill Sans" font-size="28.0" fill="#525252" transform="matrix(1.00, 0.00, -0.00, -1.00, 187.1, 189.7)">r</text><text xml:space="preserve" font-family="GillSans-Light,Gill Sans" font-size="28.0" fill="#525252" transform="matrix(1.00, 0.00, -0.00, -1.00, 196.4, 189.7)">c</text><text xml:space="preserve" font-family="GillSans-Light,Gill Sans" font-size="28.0" fill="#525252" transform="matrix(1.00, 0.00, -0.00, -1.00, 208.1, 189.7)">e</text><text xml:space="preserve" font-family="GillSans-Light,Gill Sans" font-size="28.0" fill="#525252" transform="matrix(1.00, 0.00, -0.00, -1.00, 221.5, 189.7)">:</text><text xml:space="preserve" font-family="GillSans-Light,Gill Sans" font-size="28.0" fill="#525252" transform="matrix(1.00, 0.00, -0.00, -1.00, 224.2, 189.7)"> </text><text xml:space="preserve" font-family="GillSans-Light,Gill Sans" font-size="28.0" fill="#525252" transform="matrix(1.00, 0.00, -0.00, -1.00, 232.0, 189.7)">h</text><text xml:space="preserve" font-family="GillSans-Light,Gill Sans" font-size="28.0" fill="#525252" transform="matrix(1.00, 0.00, -0.00, -1.00, 245.7, 189.7)">t</text><text xml:space="preserve" font-family="GillSans-Light,Gill Sans" font-size="28.0" fill="#525252" transform="matrix(1.00, 0.00, -0.00, -1.00, 254.1, 189.7)">t</text><text xml:space="preserve" font-family="GillSans-Light,Gill Sans" font-size="28.0" fill="#525252" transform="matrix(1.00, 0.00, -0.00, -1.00, 262.6, 189.7)">p</text><text xml:space="preserve" font-family="GillSans-Light,Gill Sans" font-size="28.0" fill="#525252" transform="matrix(1.00, 0.00, -0.00, -1.00, 276.9, 189.7)">s</text><text xml:space="preserve" font-family="GillSans-Light,Gill Sans" font-size="28.0" fill="#525252" transform="matrix(1.00, 0.00, -0.00, -1.00, 286.8, 189.7)">:</text><text xml:space="preserve" font-family="GillSans-Light,Gill Sans" font-size="28.0" fill="#525252" transform="matrix(1.00, 0.00, -0.00, -1.00, 291.7, 189.7)">/</text><text xml:space="preserve" font-family="GillSans-Light,Gill Sans" font-size="28.0" fill="#525252" transform="matrix(1.00, 0.00, -0.00, -1.00, 299.6, 189.7)">/</text><text xml:space="preserve" font-family="GillSans-Light,Gill Sans" font-size="28.0" fill="#525252" transform="matrix(1.00, 0.00, -0.00, -1.00, 307.4, 189.7)">t</text><text xml:space="preserve" font-family="GillSans-Light,Gill Sans" font-size="28.0" fill="#525252" transform="matrix(1.00, 0.00, -0.00, -1.00, 315.9, 189.7)">w</text><text xml:space="preserve" font-family="GillSans-Light,Gill Sans" font-size="28.0" fill="#525252" transform="matrix(1.00, 0.00, -0.00, -1.00, 335.7, 189.7)">i</text><text xml:space="preserve" font-family="GillSans-Light,Gill Sans" font-size="28.0" fill="#525252" transform="matrix(1.00, 0.00, -0.00, -1.00, 341.0, 189.7)">t</text><text xml:space="preserve" font-family="GillSans-Light,Gill Sans" font-size="28.0" fill="#525252" transform="matrix(1.00, 0.00, -0.00, -1.00, 349.4, 189.7)">t</text><text xml:space="preserve" font-family="GillSans-Light,Gill Sans" font-size="28.0" fill="#525252" transform="matrix(1.00, 0.00, -0.00, -1.00, 357.8, 189.7)">e</text><text xml:space="preserve" font-family="GillSans-Light,Gill Sans" font-size="28.0" fill="#525252" transform="matrix(1.00, 0.00, -0.00, -1.00, 371.3, 189.7)">r</text><text xml:space="preserve" font-family="GillSans-Light,Gill Sans" font-size="28.0" fill="#525252" transform="matrix(1.00, 0.00, -0.00, -1.00, 378.1, 189.7)">.</text><text xml:space="preserve" font-family="GillSans-Light,Gill Sans" font-size="28.0" fill="#525252" transform="matrix(1.00, 0.00, -0.00, -1.00, 383.0, 189.7)">c</text><text xml:space="preserve" font-family="GillSans-Light,Gill Sans" font-size="28.0" fill="#525252" transform="matrix(1.00, 0.00, -0.00, -1.00, 394.7, 189.7)">o</text><text xml:space="preserve" font-family="GillSans-Light,Gill Sans" font-size="28.0" fill="#525252" transform="matrix(1.00, 0.00, -0.00, -1.00, 409.9, 189.7)">m</text><text xml:space="preserve" font-family="GillSans-Light,Gill Sans" font-size="28.0" fill="#525252" transform="matrix(1.00, 0.00, -0.00, -1.00, 431.4, 189.7)">/</text><text xml:space="preserve" font-family="GillSans-Light,Gill Sans" font-size="28.0" fill="#525252" transform="matrix(1.00, 0.00, -0.00, -1.00, 439.3, 189.7)">k</text><text xml:space="preserve" font-family="GillSans-Light,Gill Sans" font-size="28.0" fill="#525252" transform="matrix(1.00, 0.00, -0.00, -1.00, 451.2, 189.7)">a</text><text xml:space="preserve" font-family="GillSans-Light,Gill Sans" font-size="28.0" fill="#525252" transform="matrix(1.00, 0.00, -0.00, -1.00, 463.2, 189.7)">r</text><text xml:space="preserve" font-family="GillSans-Light,Gill Sans" font-size="28.0" fill="#525252" transform="matrix(1.00, 0.00, -0.00, -1.00, 473.6, 189.7)">l</text><text xml:space="preserve" font-family="GillSans-Light,Gill Sans" font-size="28.0" fill="#525252" transform="matrix(1.00, 0.00, -0.00, -1.00, 478.6, 189.7)">w</text><text xml:space="preserve" font-family="GillSans-Light,Gill Sans" font-size="28.0" fill="#525252" transform="matrix(1.00, 0.00, -0.00, -1.00, 498.0, 189.7)">e</text><text xml:space="preserve" font-family="GillSans-Light,Gill Sans" font-size="28.0" fill="#525252" transform="matrix(1.00, 0.00, -0.00, -1.00, 511.4, 189.7)">s</text><text xml:space="preserve" font-family="GillSans-Light,Gill Sans" font-size="28.0" fill="#525252" transform="matrix(1.00, 0.00, -0.00, -1.00, 521.3, 189.7)">t</text><text xml:space="preserve" font-family="GillSans-Light,Gill Sans" font-size="28.0" fill="#525252" transform="matrix(1.00, 0.00, -0.00, -1.00, 529.8, 189.7)">i</text><text xml:space="preserve" font-family="GillSans-Light,Gill Sans" font-size="28.0" fill="#525252" transform="matrix(1.00, 0.00, -0.00, -1.00, 535.1, 189.7)">n</text><text xml:space="preserve" font-family="GillSans-Light,Gill Sans" font-size="28.0" fill="#525252" transform="matrix(1.00, 0.00, -0.00, -1.00, 548.8, 189.7)">/</text><text xml:space="preserve" font-family="GillSans-Light,Gill Sans" font-size="28.0" fill="#525252" transform="matrix(1.00, 0.00, -0.00, -1.00, 556.6, 189.7)">s</text><text xml:space="preserve" font-family="GillSans-Light,Gill Sans" font-size="28.0" fill="#525252" transform="matrix(1.00, 0.00, -0.00, -1.00, 566.6, 189.7)">t</text><text xml:space="preserve" font-family="GillSans-Light,Gill Sans" font-size="28.0" fill="#525252" transform="matrix(1.00, 0.00, -0.00, -1.00, 575.0, 189.7)">a</text><text xml:space="preserve" font-family="GillSans-Light,Gill Sans" font-size="28.0" fill="#525252" transform="matrix(1.00, 0.00, -0.00, -1.00, 586.9, 189.7)">t</text><text xml:space="preserve" font-family="GillSans-Light,Gill Sans" font-size="28.0" fill="#525252" transform="matrix(1.00, 0.00, -0.00, -1.00, 595.4, 189.7)">u</text><text xml:space="preserve" font-family="GillSans-Light,Gill Sans" font-size="28.0" fill="#525252" transform="matrix(1.00, 0.00, -0.00, -1.00, 609.1, 189.7)">s</text><text xml:space="preserve" font-family="GillSans-Light,Gill Sans" font-size="28.0" fill="#525252" transform="matrix(1.00, 0.00, -0.00, -1.00, 619.0, 189.7)">/</text><text xml:space="preserve" font-family="GillSans-Light,Gill Sans" font-size="28.0" fill="#525252" transform="matrix(1.00, 0.00, -0.00, -1.00, 626.9, 189.7)">6</text><text xml:space="preserve" font-family="GillSans-Light,Gill Sans" font-size="28.0" fill="#525252" transform="matrix(1.00, 0.00, -0.00, -1.00, 640.9, 189.7)">0</text><text xml:space="preserve" font-family="GillSans-Light,Gill Sans" font-size="28.0" fill="#525252" transform="matrix(1.00, 0.00, -0.00, -1.00, 654.9, 189.7)">8</text><text xml:space="preserve" font-family="GillSans-Light,Gill Sans" font-size="28.0" fill="#525252" transform="matrix(1.00, 0.00, -0.00, -1.00, 668.9, 189.7)">2</text><text xml:space="preserve" font-family="GillSans-Light,Gill Sans" font-size="28.0" fill="#525252" transform="matrix(1.00, 0.00, -0.00, -1.00, 682.9, 189.7)">6</text><text xml:space="preserve" font-family="GillSans-Light,Gill Sans" font-size="28.0" fill="#525252" transform="matrix(1.00, 0.00, -0.00, -1.00, 696.9, 189.7)">9</text><text xml:space="preserve" font-family="GillSans-Light,Gill Sans" font-size="28.0" fill="#525252" transform="matrix(1.00, 0.00, -0.00, -1.00, 710.9, 189.7)">8</text><text xml:space="preserve" font-family="GillSans-Light,Gill Sans" font-size="28.0" fill="#525252" transform="matrix(1.00, 0.00, -0.00, -1.00, 724.9, 189.7)">6</text><text xml:space="preserve" font-family="GillSans-Light,Gill Sans" font-size="28.0" fill="#525252" transform="matrix(1.00, 0.00, -0.00, -1.00, 738.9, 189.7)">1</text><text xml:space="preserve" font-family="GillSans-Light,Gill Sans" font-size="28.0" fill="#525252" transform="matrix(1.00, 0.00, -0.00, -1.00, 752.9, 189.7)">6</text><text xml:space="preserve" font-family="GillSans-Light,Gill Sans" font-size="28.0" fill="#525252" transform="matrix(1.00, 0.00, -0.00, -1.00, 766.9, 189.7)">0</text><text xml:space="preserve" font-family="GillSans-Light,Gill Sans" font-size="28.0" fill="#525252" transform="matrix(1.00, 0.00, -0.00, -1.00, 780.9, 189.7)">1</text><text xml:space="preserve" font-family="GillSans-Light,Gill Sans" font-size="28.0" fill="#525252" transform="matrix(1.00, 0.00, -0.00, -1.00, 794.9, 189.7)">5</text><text xml:space="preserve" font-family="GillSans-Light,Gill Sans" font-size="28.0" fill="#525252" transform="matrix(1.00, 0.00, -0.00, -1.00, 808.9, 189.7)">5</text><text xml:space="preserve" font-family="GillSans-Light,Gill Sans" font-size="28.0" fill="#525252" transform="matrix(1.00, 0.00, -0.00, -1.00, 822.9, 189.7)">8</text><text xml:space="preserve" font-family="GillSans-Light,Gill Sans" font-size="28.0" fill="#525252" transform="matrix(1.00, 0.00, -0.00, -1.00, 836.9, 189.7)">5</text><text xml:space="preserve" font-family="GillSans-Light,Gill Sans" font-size="28.0" fill="#525252" transform="matrix(1.00, 0.00, -0.00, -1.00, 850.9, 189.7)">2</text><text xml:space="preserve" font-family="GillSans-Light,Gill Sans" font-size="28.0" fill="#525252" transform="matrix(1.00, 0.00, -0.00, -1.00, 864.9, 189.7)">8</text></g></svg>